<svg xmlns="http://www.w3.org/2000/svg" width="512" height="512" viewBox="0 0 512 512">
  <g fill="none">
    <path fill="#FFF" d="M68.267 42.667C68.267 37.547 64.854 34.134 59.734 34.134 45.227 34.134 34.134 45.227 34.134 59.734 34.134 64.854 37.547 68.267 42.667 68.267 47.787 68.267 51.2 64.854 51.2 59.734 51.2 54.614 54.613 51.201 59.733 51.201 64.853 51.201 68.267 47.787 68.267 42.667zM307.2 68.267C312.32 68.267 315.733 64.854 315.733 59.734 315.733 54.614 319.146 51.201 324.266 51.201 329.386 51.201 332.799 47.788 332.799 42.668 332.799 37.548 329.386 34.135 324.266 34.135 309.759 34.135 298.666 45.228 298.666 59.735 298.667 64.853 302.08 68.267 307.2 68.267zM59.733 298.667C45.226 298.667 34.133 309.76 34.133 324.267 34.133 329.387 37.546 332.8 42.666 332.8 47.786 332.8 51.199 329.387 51.199 324.267 51.199 319.147 54.612 315.734 59.732 315.734 64.852 315.734 68.265 312.321 68.265 307.201 68.265 302.081 64.853 298.667 59.733 298.667zM307.2 332.8C312.32 332.8 315.733 329.387 315.733 324.267 315.733 319.147 319.146 315.734 324.266 315.734 329.386 315.734 332.799 312.321 332.799 307.201 332.799 302.081 329.386 298.668 324.266 298.668 309.759 298.668 298.666 309.761 298.666 324.268 298.667 329.387 302.08 332.8 307.2 332.8zM187.733 162.133C173.226 162.133 162.133 173.226 162.133 187.733 162.133 192.853 165.546 196.266 170.666 196.266 175.786 196.266 179.199 192.853 179.199 187.733 179.199 182.613 182.612 179.2 187.732 179.2 192.852 179.2 196.265 175.787 196.265 170.667 196.265 165.547 192.853 162.133 187.733 162.133zM435.2 196.267C440.32 196.267 443.733 192.854 443.733 187.734 443.733 182.614 447.146 179.201 452.266 179.201 457.386 179.201 460.799 175.788 460.799 170.668 460.799 165.548 457.386 162.135 452.266 162.135 437.759 162.135 426.666 173.228 426.666 187.735 426.667 192.853 430.08 196.267 435.2 196.267zM187.733 426.667C173.226 426.667 162.133 437.76 162.133 452.267 162.133 457.387 165.546 460.8 170.666 460.8 175.786 460.8 179.199 457.387 179.199 452.267 179.199 447.147 182.612 443.734 187.732 443.734 192.852 443.734 196.265 440.321 196.265 435.201 196.265 430.081 192.853 426.667 187.733 426.667zM452.267 426.667C437.76 426.667 426.667 437.76 426.667 452.267 426.667 457.387 430.08 460.8 435.2 460.8 440.32 460.8 443.733 457.387 443.733 452.267 443.733 447.147 447.146 443.734 452.266 443.734 457.386 443.734 460.799 440.321 460.799 435.201 460.799 430.081 457.387 426.667 452.267 426.667z"/>
    <path fill="#FFF" d="M460.8,393.136 L460.8,246.864 C489.955,242.789 512,218.111 512,187.733 C512,154.453 485.547,128 452.267,128 C421.889,128 397.211,150.045 393.136,179.2 L332.8,179.2 L332.8,118.864 C361.955,114.789 384,90.111 384,59.733 C384,26.453 357.547,0 324.267,0 C293.889,0 269.211,22.045 265.136,51.2 L118.864,51.2 C114.789,22.045 90.111,0 59.733,0 C26.453,0 0,26.453 0,59.733 C0,90.111 22.045,114.789 51.2,118.864 L51.2,265.136 C22.045,269.211 0,293.889 0,324.267 C0,357.547 26.453,384 59.733,384 C90.111,384 114.789,361.955 118.864,332.8 L179.2,332.8 L179.2,393.136 C150.045,397.211 128,421.889 128,452.267 C128,485.547 154.453,512 187.733,512 C218.111,512 242.789,489.955 246.864,460.8 L393.136,460.8 C397.211,489.955 421.889,512 452.267,512 C485.547,512 512,485.547 512,452.267 C512,421.889 489.955,397.211 460.8,393.136 Z M452.267,145.067 C476.16,145.067 494.934,163.84 494.934,187.734 C494.934,211.628 476.16,230.4 452.267,230.4 C428.374,230.4 409.6,211.627 409.6,187.733 C409.6,163.839 428.373,145.067 452.267,145.067 Z M324.267,17.067 C348.16,17.067 366.934,35.84 366.934,59.734 C366.934,83.628 348.16,102.4 324.267,102.4 C300.374,102.4 281.6,83.627 281.6,59.733 C281.6,35.839 300.373,17.067 324.267,17.067 Z M17.067,59.733 C17.067,35.84 35.84,17.066 59.734,17.066 C83.628,17.066 102.4,35.84 102.4,59.733 C102.4,83.626 83.627,102.4 59.733,102.4 C35.839,102.4 17.067,83.627 17.067,59.733 Z M59.733,366.933 C35.84,366.933 17.066,348.16 17.066,324.266 C17.066,300.373 35.839,281.599 59.733,281.599 C83.627,281.599 102.4,300.372 102.4,324.266 C102.4,348.16 83.627,366.933 59.733,366.933 Z M118.864,315.733 C117.542,306.275 114.052,297.569 108.9,290.118 C99.777,276.712 85.259,267.274 68.267,264.533 L68.267,118.864 C94.637,115.178 115.179,94.636 118.864,68.267 L264.533,68.267 C267.679,91.86 285.326,111.817 308.78,117.475 C310.773,117.998 312.807,118.427 314.88,118.746 L314.88,179.2 L246.864,179.2 C242.789,150.045 218.111,128 187.733,128 C154.453,128 128,154.453 128,187.733 C128,218.111 150.045,242.789 179.2,246.864 L179.2,315.733 L118.864,315.733 Z M324.267,281.6 C348.16,281.6 366.934,300.373 366.934,324.267 C366.934,348.16 348.161,366.934 324.267,366.934 C300.374,366.934 281.6,348.161 281.6,324.267 C281.6,300.373 300.373,281.6 324.267,281.6 Z M314.88,265.254 C312.572,265.61 310.314,266.107 308.106,266.715 C285.599,272.528 267.641,291.653 264.534,315.734 L196.267,315.734 L196.267,246.865 C222.637,243.179 243.179,222.637 246.864,196.268 L314.88,196.268 L314.88,265.254 Z M187.733,230.4 C163.84,230.4 145.066,211.627 145.066,187.733 C145.066,163.839 163.839,145.066 187.733,145.066 C211.627,145.066 230.4,163.84 230.4,187.733 C230.4,211.626 211.627,230.4 187.733,230.4 Z M265.136,332.8 C269.211,361.955 293.889,384 324.267,384 C357.547,384 384,357.547 384,324.267 C384,293.889 361.955,269.211 332.8,265.136 L332.8,196.267 L392.533,196.267 C395.679,219.86 413.325,239.817 436.779,245.475 C438.773,245.998 440.806,246.427 442.879,246.747 L442.879,393.255 C440.57,393.611 438.313,394.108 436.104,394.716 C413.597,400.529 395.639,419.654 392.532,443.735 L246.864,443.735 C245.542,434.276 242.051,425.569 236.898,418.117 C227.775,404.712 213.258,395.275 196.266,392.535 L196.266,332.8 L265.136,332.8 Z M187.733,494.933 C163.84,494.933 145.066,476.16 145.066,452.266 C145.066,428.373 163.839,409.599 187.733,409.599 C211.627,409.599 230.4,428.372 230.4,452.266 C230.4,476.16 211.627,494.933 187.733,494.933 Z M452.267,494.933 C428.374,494.933 409.6,476.16 409.6,452.266 C409.6,428.373 428.373,409.599 452.267,409.599 C476.16,409.599 494.934,428.372 494.934,452.266 C494.933,476.16 476.16,494.933 452.267,494.933 Z"/>
  </g>
</svg>
